<svg xmlns="http://www.w3.org/2000/svg" viewBox="0 0 292 128" fill="none" aria-hidden="true" style="max-width:242px">
            <circle cx="146" cy="72" r="60" fill="#FF0001" opacity=".07"/>
            <circle cx="146" cy="72" r="40" fill="#FF0001" opacity=".07"/>
            <circle cx="146" cy="72" r="60" fill="none" stroke="#FF0001" stroke-opacity=".22" stroke-width="1.5" stroke-dasharray="3 8"/>
            <path d="M146 34a26 26 0 0 1 26 26c0 19-26 42-26 42s-26-23-26-42a26 26 0 0 1 26-26" fill="#FF0001"/>
            <circle cx="146" cy="60" r="9.5" fill="#fff" opacity=".95"/>
            <path d="m56 30 2.6 6.4 6.4 2.6-6.4 2.6L56 48l-2.6-6.4-6.4-2.6 6.4-2.6z" fill="#FF0001" opacity=".5"/>
            <circle cx="238" cy="42" r="4.5" fill="#FF0005" opacity=".45"/>
            <circle cx="248" cy="96" r="3.5" fill="#FF0006" opacity=".45"/>
          </svg>
